<?xml version="1.0" standalone="no"?>
<!DOCTYPE svg PUBLIC "-//W3C//DTD SVG 20010904//EN"
 "http://www.w3.org/TR/2001/REC-SVG-20010904/DTD/svg10.dtd">
<svg version="1.0" xmlns="http://www.w3.org/2000/svg"
 width="800.000000pt" height="797.000000pt" viewBox="0 0 800.000000 797.000000"
 preserveAspectRatio="xMidYMid meet">

<g transform="translate(0.000000,797.000000) scale(0.100000,-0.100000)"
fill="#e82127" stroke="none">
<path d="M3615 7944 c-27 -2 -135 -8 -240 -14 -892 -51 -1827 -230 -2715 -522
-212 -69 -602 -210 -628 -227 -11 -6 -1 -35 42 -132 72 -158 161 -325 173
-322 5 1 80 31 166 67 917 382 1932 608 2996 667 241 13 1182 6 1366 -10 1060
-96 1862 -281 2728 -629 l247 -99 58 111 c57 108 131 263 151 318 8 21 7 28
-7 33 -309 121 -742 267 -1032 349 -760 215 -1460 336 -2275 396 -145 11 -929
21 -1030 14z"/>
<path d="M3010 7174 c-19 -2 -84 -9 -145 -14 -673 -63 -1400 -228 -2014 -457
-157 -58 -468 -187 -479 -198 -9 -9 113 -158 205 -249 108 -109 267 -233 423
-330 109 -69 366 -201 410 -211 25 -6 26 -4 36 64 16 100 71 210 137 274 161
157 443 222 1012 234 l280 6 238 -1329 c454 -2541 877 -4899 879 -4906 2 -5
253 1396 558 3112 l554 3120 186 0 c318 0 609 -28 796 -75 141 -36 236 -85
315 -164 77 -78 114 -149 138 -267 l16 -81 35 16 c108 48 297 145 380 196 228
140 476 355 599 519 l51 69 -92 42 c-485 219 -1112 409 -1713 519 -324 59
-707 105 -903 109 l-103 2 -402 -490 c-222 -269 -408 -490 -414 -490 -6 0
-192 221 -413 490 l-402 490 -67 1 c-36 1 -82 0 -101 -2z"/>
</g>
</svg>
